<?xml version="1.0" encoding="utf-8"?>
<!-- Svg Vector Icons : http://www.onlinewebfonts.com/icon -->
<!DOCTYPE svg PUBLIC "-//W3C//DTD SVG 1.1//EN" "http://www.w3.org/Graphics/SVG/1.1/DTD/svg11.dtd">
<svg version="1.1" xmlns="http://www.w3.org/2000/svg" xmlns:xlink="http://www.w3.org/1999/xlink" x="0px" y="0px" viewBox="0 0 1000 1000" enable-background="new 0 0 1000 1000" xml:space="preserve">
<metadata> Svg Vector Icons : http://www.onlinewebfonts.com/icon </metadata>
<g><g transform="translate(0.000000,512.000000) scale(0.100000,-0.100000)"><path d="M4690.3,5014.8c-619.4-61.3-993.3-143.8-1455.4-322.1C2266.5,4316.9,1440.1,3638,857.1,2734.9c-228.2-352.8-548.4-1085.3-548.4-1250.3c0-97.8,86.3-178.3,191.8-178.3c103.5,0,170.7,67.1,218.6,222.4c51.8,174.5,218.6,554.2,322.2,744c111.2,201.3,327.9,531.2,370.1,567.6c24.9,21.1,61.4,9.6,235.9-72.9c347.1-163,740.2-310.7,977.9-368.2c90.1-21.1,101.6-28.8,94-65.2c-84.4-395-151.5-747.9-153.4-813c-1.9-136.2,67.1-214.8,187.9-214.8c134.2,0,184.1,78.6,230.1,364.3c17.3,99.7,53.7,274.2,80.5,389.3c53.7,228.2,46,224.4,216.7,184.1c285.7-65.2,1056.6-151.5,1367.2-151.5H4815v-297.2v-297.2h191.8h191.7v297.2v297.2h168.7c308.7,0,1079.6,86.3,1365.3,151.5c170.7,40.3,163,44.1,216.7-184.1c26.9-115.1,63.3-289.5,80.5-389.3c47.9-283.8,92-362.4,210.9-364.3c143.8,0,209,67.1,207.1,210.9c-1.9,69-65.2,406.5-153.4,816.9c-7.7,36.4,3.8,44.1,94,65.2c184.1,44.1,684.6,230.1,937.7,349c209,97.8,251.2,113.1,276.1,92c42.2-36.4,258.9-368.2,370.1-567.6c103.6-189.8,270.4-569.5,322.1-744c47.9-155.3,115.1-222.4,218.6-222.4c105.5,0,191.8,80.5,191.8,178.3c0,164.9-320.3,897.4-548.4,1250.3c-429.5,663.5-1020.1,1236.8-1666.4,1614.6c-571.4,333.7-1173.5,540.7-1840.8,630.9C5442,5009.1,4841.8,5030.2,4690.3,5014.8z M4815,3540.3V2476h-74.8c-151.5,0-793.9,59.4-1041.2,95.9c-366.2,53.7-456.4,74.8-456.4,109.3c0,15.3,38.3,126.6,86.3,247.4c327.9,838,805.4,1438.2,1296.3,1628C4836,4637.1,4815,4754.1,4815,3540.3z M5382.5,4556.6c494.7-186,977.9-791.9,1302-1629.9c47.9-122.7,86.3-233.9,86.3-249.3c0-57.5-657.7-151.5-1355.7-193.7l-216.7-13.4v1068.1c0,928.1,3.8,1066.2,28.8,1066.2C5242.6,4604.5,5311.6,4583.4,5382.5,4556.6z M3775.6,4437.7c-381.6-446.8-629-872.5-847.5-1453.5c-78.6-210.9-90.1-230.1-130.4-224.4c-195.6,28.8-1089.2,377.8-1089.2,425.7c0,7.7,88.2,99.7,197.5,203.3c448.7,437.2,1029.7,790,1639.5,997.1c134.2,46,247.4,84.4,251.2,84.4C3800.6,4470.3,3791,4454.9,3775.6,4437.7z M6634.7,4326.4c536.9-205.2,1073.8-546.5,1478.4-943.4c232-228.2,235.9-193.7-47.9-324.1c-358.6-161.1-887.8-331.7-901.2-289.6c-199.4,584.9-513.9,1179.3-801.5,1518.7c-53.7,63.3-109.3,130.4-124.6,147.7c-23,28.8-11.5,26.8,103.5-7.7C6412.3,4407,6544.6,4361,6634.7,4326.4z"/><path d="M567.6,75.2l274.2-830.3l187.9-5.8l189.8-5.7l210.9,634.7c115.1,347.1,214.8,632.8,220.5,632.8s101.6-283.8,216.7-632.8l205.2-632.8h187.9h186l278,807.3c153.4,444.9,280,818.8,283.8,834.1c5.8,21.1-30.7,26.8-174.5,26.8H2652l-30.7-90.1c-15.3-51.8-99.7-324.1-186-609.8c-86.3-283.8-161.1-529.2-168.7-542.7c-7.7-13.4-103.5,258.9-214.8,604l-201.3,629l-191.8,5.7l-191.8,5.8L1259.8,267c-126.6-391.2-212.8-625.1-220.5-607.9c-7.7,13.4-95.9,301-193.7,636.6L667.3,903.6h-186h-186L567.6,75.2z"/><path d="M3651,880.6c3.8-13.4,128.5-389.3,274.2-836l266.5-811.1l189.8,5.7l189.8,5.8l210.9,628.9C4897.4,221,4999,497.1,5006.7,487.5c7.7-7.7,103.5-293.4,212.9-634.7L5419-764.6l189.8,3.8l189.9,5.8l283.8,824.6C6239.7,524,6368.2,896,6368.2,899.8c0,1.9-84.4,1.9-186,0l-187.9-5.7l-184.1-604c-99.7-331.7-187.9-617.5-193.7-632.8S5536-151,5449.7,117.4c-86.3,268.5-180.3,556.1-205.2,638.5l-49.8,147.7h-189.8h-187.9l-207.1-632.8c-113.1-347.1-210.9-627-218.6-617.5c-7.7,7.7-94,291.5-191.8,630.9l-180.2,619.4h-187.9C3687.4,903.6,3643.3,897.9,3651,880.6z"/><path d="M7001,892.1c0-5.8,120.8-381.6,270.4-834.1l268.5-822.6h189.8h187.9l205.2,619.4c113.1,339.4,212.8,623.2,218.6,632.8c11.5,11.5,299.1-826.5,396.9-1158.2l28.8-94H8955h187.9l281.9,820.7c155.3,450.6,280,824.5,280,834.1c0,7.7-80.5,13.4-178.3,13.4h-180.3l-186-617.5c-103.6-341.3-193.7-625.1-201.3-632.8c-5.8-7.7-101.6,272.3-212.9,619.4l-201.3,632.8l-191.7-5.8L8163,894l-203.2-617.5c-111.2-339.4-207.1-623.2-212.9-629c-5.7-5.7-76.7,216.7-157.2,494.7c-82.5,276.1-164.9,559.9-187.9,632.8l-38.3,128.5h-180.3C7083.4,903.6,7001,897.9,7001,892.1z"/><path d="M364.3-1127.1c-76.7-76.7-72.9-140,21.1-406.5c224.4-632.8,607.9-1246.4,1087.3-1745c803.5-834.1,1779.5-1321.2,2958.8-1478.4c233.9-30.7,916.6-30.7,1150.5,0c709.5,95.9,1325,301.1,1908,642.4c646.2,377.8,1236.8,951.1,1666.4,1614.6c228.2,352.9,548.4,1085.4,548.4,1250.3c0,97.8-86.3,178.3-191.8,178.3c-103.6,0-170.7-67.1-218.6-222.4c-51.8-174.5-218.6-554.2-322.1-744c-111.2-201.3-327.9-531.2-370.1-567.6c-24.9-21.1-61.4-9.6-235.9,72.9c-347.1,163-740.2,310.6-977.9,368.2c-90.1,21.1-101.6,28.8-94,65.2c84.4,395,151.5,747.8,153.4,813c1.9,136.2-67.1,214.8-187.9,214.8c-134.2,0-184.1-78.6-230.1-364.3c-17.3-99.7-53.7-274.2-80.5-387.3c-53.7-230.1-46-226.3-216.7-186c-285.7,65.2-1056.6,151.5-1365.3,151.5h-168.7v297.2v297.2h-191.7H4815v-297.2v-297.2h-166.8c-310.6,0-1081.5-86.3-1367.2-151.5c-170.7-40.3-163-44.1-216.7,186c-26.9,113.1-63.3,287.6-80.5,387.3c-47.9,283.8-92,362.4-210.9,364.3c-143.8,0-209-67.1-207.1-210.9c1.9-69,65.2-406.5,153.4-816.9c7.7-36.4-3.8-44.1-94-65.2c-184.1-44.1-684.6-230.1-937.7-349c-209-97.8-251.2-113.1-276.1-92c-42.2,36.4-258.9,368.2-370.1,567.6c-103.6,189.8-270.4,569.5-322.2,744c-47.9,155.3-115.1,222.4-218.6,222.4C437.2-1071.5,408.4-1082.9,364.3-1127.1z M4815-3305.4c0-926.2-3.8-1064.2-28.8-1064.2c-15.3,0-84.4,21.1-155.3,47.9c-492.8,186-972.2,784.3-1302,1628c-47.9,120.8-86.3,232-86.3,247.3c0,19.2,34.5,36.4,101.6,51.8c174.5,36.4,590.6,94,847.6,115.1c138.1,9.6,283.8,23,326,24.9c42.2,3.8,126.6,7.7,187.9,9.6l109.3,3.8V-3305.4z M5704.7-2269.9c581-47.9,1066.2-126.6,1066.2-172.6c0-15.4-38.3-126.6-86.3-249.3c-262.7-678.8-646.2-1231.1-1037.4-1491.9c-128.5-84.4-356.7-186-419.9-186c-24.9,0-28.8,138.1-28.8,1064.2v1064.2h74.8C5315.4-2241.2,5509.1-2254.6,5704.7-2269.9z M2926.2-2739.7c40.3-111.2,134.2-331.7,210.9-490.9c180.2-377.8,343.2-625.1,636.6-970.3c24.9-28.8,13.4-26.8-101.6,7.7c-644.3,193.7-1292.4,575.3-1771.8,1045.1c-230.1,226.3-233.9,195.6,38.3,318.3c301.1,138.1,880.2,331.8,903.2,304.9C2847.5-2532.6,2885.9-2628.5,2926.2-2739.7z M7624.2-2649.6c285.7-99.7,680.7-274.2,680.7-301.1c0-30.7-406.5-404.6-577.2-531.2c-425.7-318.3-916.6-571.4-1386.4-711.4c-115.1-34.5-126.5-36.4-103.5-7.7c15.3,17.3,71,84.4,124.6,147.6c287.6,339.4,602.1,933.9,801.5,1518.7C7173.5-2507.7,7309.7-2542.2,7624.2-2649.6z"/></g></g>
</svg>